<mxfile host="app.diagrams.net" modified="2021-12-08T03:33:41.609Z" agent="5.0 (Windows NT 10.0; Win64; x64) AppleWebKit/537.36 (KHTML, like Gecko) Chrome/96.0.4664.45 Safari/537.36" etag="QwlZNlQsEWe_7oWd-ikh" version="15.9.1" type="github">
  <diagram id="a9E365XkrHaVJsNSXEQq" name="Page-1">
    <mxGraphModel dx="1038" dy="547" grid="1" gridSize="10" guides="1" tooltips="1" connect="1" arrows="1" fold="1" page="1" pageScale="1" pageWidth="850" pageHeight="1100" math="0" shadow="0">
      <root>
        <mxCell id="0" />
        <mxCell id="1" parent="0" />
        <mxCell id="5exH2aYQCZ6jF17hhj3v-1" value="Khách hàng&lt;br&gt;" style="shape=umlActor;verticalLabelPosition=bottom;verticalAlign=top;html=1;" vertex="1" parent="1">
          <mxGeometry x="90" y="160" width="30" height="60" as="geometry" />
        </mxCell>
        <mxCell id="5exH2aYQCZ6jF17hhj3v-5" value="" style="endArrow=block;dashed=1;endFill=0;endSize=12;html=1;rounded=0;startArrow=none;" edge="1" parent="1" source="5exH2aYQCZ6jF17hhj3v-6">
          <mxGeometry width="160" relative="1" as="geometry">
            <mxPoint x="140" y="200" as="sourcePoint" />
            <mxPoint x="410" y="200" as="targetPoint" />
          </mxGeometry>
        </mxCell>
        <mxCell id="5exH2aYQCZ6jF17hhj3v-6" value="Mua hàng" style="ellipse;whiteSpace=wrap;html=1;" vertex="1" parent="1">
          <mxGeometry x="230" y="180" width="90" height="40" as="geometry" />
        </mxCell>
        <mxCell id="5exH2aYQCZ6jF17hhj3v-7" value="" style="endArrow=none;dashed=1;endFill=0;endSize=12;html=1;rounded=0;" edge="1" parent="1" target="5exH2aYQCZ6jF17hhj3v-6">
          <mxGeometry width="160" relative="1" as="geometry">
            <mxPoint x="140" y="200" as="sourcePoint" />
            <mxPoint x="410" y="200" as="targetPoint" />
          </mxGeometry>
        </mxCell>
        <mxCell id="5exH2aYQCZ6jF17hhj3v-8" value="Thanh toán" style="ellipse;whiteSpace=wrap;html=1;" vertex="1" parent="1">
          <mxGeometry x="410" y="180" width="110" height="40" as="geometry" />
        </mxCell>
        <mxCell id="5exH2aYQCZ6jF17hhj3v-9" value="include" style="text;align=center;fontStyle=1;verticalAlign=middle;spacingLeft=3;spacingRight=3;strokeColor=none;rotatable=0;points=[[0,0.5],[1,0.5]];portConstraint=eastwest;" vertex="1" parent="1">
          <mxGeometry x="320" y="177" width="80" height="26" as="geometry" />
        </mxCell>
        <mxCell id="5exH2aYQCZ6jF17hhj3v-11" value="Use" style="endArrow=open;endSize=12;dashed=1;html=1;rounded=0;exitX=0.5;exitY=1;exitDx=0;exitDy=0;startArrow=none;" edge="1" parent="1" source="5exH2aYQCZ6jF17hhj3v-12">
          <mxGeometry width="160" relative="1" as="geometry">
            <mxPoint x="440" y="280" as="sourcePoint" />
            <mxPoint x="465" y="350" as="targetPoint" />
          </mxGeometry>
        </mxCell>
        <mxCell id="5exH2aYQCZ6jF17hhj3v-12" value="Tạo hóa đơn" style="ellipse;whiteSpace=wrap;html=1;" vertex="1" parent="1">
          <mxGeometry x="425" y="250" width="80" height="40" as="geometry" />
        </mxCell>
        <mxCell id="5exH2aYQCZ6jF17hhj3v-13" value="" style="endArrow=none;endSize=12;dashed=1;html=1;rounded=0;exitX=0.5;exitY=1;exitDx=0;exitDy=0;" edge="1" parent="1" source="5exH2aYQCZ6jF17hhj3v-8" target="5exH2aYQCZ6jF17hhj3v-12">
          <mxGeometry width="160" relative="1" as="geometry">
            <mxPoint x="465" y="220" as="sourcePoint" />
            <mxPoint x="465" y="320" as="targetPoint" />
          </mxGeometry>
        </mxCell>
        <mxCell id="5exH2aYQCZ6jF17hhj3v-14" value="Dùng điểm thưởng cũ" style="ellipse;whiteSpace=wrap;html=1;" vertex="1" parent="1">
          <mxGeometry x="395" y="350" width="140" height="40" as="geometry" />
        </mxCell>
        <mxCell id="5exH2aYQCZ6jF17hhj3v-15" value="" style="endArrow=open;endFill=1;endSize=12;html=1;rounded=0;exitX=0.5;exitY=1;exitDx=0;exitDy=0;" edge="1" parent="1" source="5exH2aYQCZ6jF17hhj3v-14">
          <mxGeometry width="160" relative="1" as="geometry">
            <mxPoint x="440" y="280" as="sourcePoint" />
            <mxPoint x="465" y="460" as="targetPoint" />
          </mxGeometry>
        </mxCell>
        <mxCell id="5exH2aYQCZ6jF17hhj3v-16" value="Tạo mã QR mới và điểm thưởng mới dựa trên giá trị đơn hàng" style="ellipse;whiteSpace=wrap;html=1;" vertex="1" parent="1">
          <mxGeometry x="395" y="460" width="140" height="70" as="geometry" />
        </mxCell>
        <mxCell id="5exH2aYQCZ6jF17hhj3v-17" value="" style="endArrow=open;endFill=1;endSize=12;html=1;rounded=0;" edge="1" parent="1" target="5exH2aYQCZ6jF17hhj3v-18">
          <mxGeometry width="160" relative="1" as="geometry">
            <mxPoint x="140" y="180" as="sourcePoint" />
            <mxPoint x="240" y="110" as="targetPoint" />
          </mxGeometry>
        </mxCell>
        <mxCell id="5exH2aYQCZ6jF17hhj3v-18" value="Tra cứu điểm thưởng" style="ellipse;whiteSpace=wrap;html=1;" vertex="1" parent="1">
          <mxGeometry x="230" y="110" width="100" height="35" as="geometry" />
        </mxCell>
      </root>
    </mxGraphModel>
  </diagram>
</mxfile>
